<svg viewBox="0 0 24 24" fill="#1DB954" xmlns="http://www.w3.org/2000/svg">
  <path d="M12 0C5.4 0 0 5.4 0 12s5.4 12 12 12 12-5.4 12-12S18.6 0 12 0zm5.5 17.3c-.2.3-.6.4-.9.2-2.5-1.5-5.6-1.9-9.3-1.1-.4.1-.8-.2-.9-.6-.1-.4.2-.8.6-.9 4-.9 7.5-.4 10.3 1.3.3.2.4.6.2.9zm1.3-3c-.3.4-.8.5-1.2.3-2.9-1.8-7.3-2.3-10.7-1.3-.5.1-1-.2-1.1-.7-.1-.5.2-1 .7-1.1 3.9-1.2 8.8-.6 12.2 1.5.4.3.5.8.3 1.2zm.1-3.2c-3.5-2.1-9.3-2.3-12.7-1.3-.6.2-1.2-.2-1.4-.8-.2-.6.2-1.2.8-1.4 4-.9 10.6-.7 14.8 1.7.5.3.7 1 .4 1.5-.3.5-1 .7-1.5.4z"/>
</svg>